<svg width="56" height="64" viewBox="0 0 56 64" fill="none" xmlns="http://www.w3.org/2000/svg">
<mask id="mask0_53_131" style="mask-type:luminance" maskUnits="userSpaceOnUse" x="0" y="0" width="56" height="64">
<path d="M0.53125 0.520813H55.974V64H0.53125V0.520813Z" fill="white"/>
</mask>
<g mask="url(#mask0_53_131)">
<path d="M28.349 6.22916C28.5105 6.22916 28.6511 6.30729 28.8334 6.4427C31.9219 8.78125 35.349 10.6302 39.0157 11.9271C42.4323 13.1406 46.1927 13.9219 50.1823 14.25H50.1928C50.4584 14.276 50.6615 14.5 50.6667 14.7708C50.7553 20.7552 49.9115 26.7917 48.1667 32.7083C45.0469 43.276 38.9115 51.6615 29.9219 57.6354C28.6146 58.5052 27.7396 58.5573 26.4427 57.8385C14.6615 51.3021 8.02087 40.9427 6.14067 26.1615C5.68754 22.6354 5.54171 19.0156 5.68754 15.099C5.70837 14.6458 6.04171 14.276 6.48962 14.2187C10.7917 13.6302 15.349 12.9062 19.6927 11C22.3907 9.8177 24.9792 8.36979 27.3855 6.70312C27.849 6.3802 28.1198 6.22916 28.349 6.22916ZM55.7084 14.4583C55.6823 13.4479 55.6094 12.3802 55.1407 11.4375C54.5834 10.3437 53.6355 9.59895 52.2292 9.15625C51.099 8.80208 49.8386 8.70312 48.7344 8.61458H48.7136C43.3542 8.18229 38.1302 6.3177 33.6042 3.22395C33.4636 3.125 33.323 3.03125 33.1823 2.93229C31.7969 1.97395 30.3646 0.979163 28.6198 0.895829C26.6615 0.796871 24.9375 1.91666 23.4115 2.90625C23.2865 2.98958 23.1615 3.0677 23.0365 3.15104C19.5157 5.41145 15.6771 7.04687 11.625 8.0052C9.83858 8.42708 7.92712 8.71354 5.60421 8.90104C3.40629 9.07812 1.86462 10.0781 1.14067 11.7865C0.635456 12.974 0.567748 14.25 0.541707 15.5677C0.520874 16.5729 0.515666 17.5781 0.526082 18.5573C0.666707 29.8698 3.0365 39.4167 7.58337 46.9427C9.37504 49.9219 11.6146 52.7292 14.2292 55.2917C16.6719 57.6927 19.4532 59.8854 22.4948 61.8177C24.1875 62.8906 26.0209 63.8698 28 63.8698C28.1198 63.8698 28.2344 63.8646 28.349 63.8594C30.0886 63.7552 31.6459 62.8906 33.073 61.9635C36.75 59.5625 40.1198 56.5573 43.0938 53.0156C45.9948 49.5521 48.4532 45.6667 50.3907 41.4635C54.1407 33.3333 55.9792 23.9948 55.7084 14.4583Z" fill="#828282"/>
</g>
<path d="M40.0104 26.9427C39.9635 27.2448 39.7396 27.4792 39.5208 27.6979C35.0573 32.1615 30.599 36.6354 26.1354 41.099C25.7552 41.4792 25.276 41.8906 24.7552 41.7708C24.4635 41.7031 24.2396 41.4844 24.0313 41.2761C21.625 38.8698 19.2188 36.4636 16.8125 34.0521C16.5313 33.7708 16.2292 33.4479 16.2292 33.0521C16.2344 32.6667 16.526 32.3438 16.7969 32.0729C17.526 31.3386 18.25 30.6042 18.9792 29.8646C19.2708 29.5729 19.6042 29.2604 20.0156 29.2448C20.474 29.224 20.8542 29.5677 21.1719 29.8958C22.4479 31.1719 23.724 32.4479 24.9948 33.724C28.375 30.3438 31.75 26.9583 35.125 23.5781C35.4115 23.2865 35.7396 22.9792 36.151 22.9636C36.599 22.9479 36.9688 23.2917 37.2917 23.6094C37.9948 24.3229 38.7031 25.0365 39.4115 25.75C39.7344 26.0833 40.0885 26.4896 40.0104 26.9427ZM46.5885 18.4583C46.5833 17.9531 46.1979 17.5261 45.6875 17.4844C45.6875 17.4792 45.6823 17.4792 45.6823 17.4792C39.6302 16.9792 34.0052 15.1667 29.0156 11.3906C28.3073 10.8542 27.7865 11.1719 27.1875 11.5833C25.2813 12.9011 23.2813 14.0156 21.1719 14.9427C17.8073 16.4167 14.2656 16.9948 10.5833 17.4896C10.099 17.5521 9.73438 17.9531 9.71355 18.4375C9.58334 21.6094 9.68751 24.6042 10.0677 27.5886C11.526 39.0365 16.7188 47.7656 26.4844 53.1875C27.7135 53.8646 28.651 53.8021 29.8542 53C37.0833 48.1979 42.0313 41.5208 44.5833 32.8802C45.9635 28.1927 46.6615 23.3854 46.5885 18.4583Z" fill="#828282"/>
</svg>
