<svg width="63" height="63" viewBox="0 0 63 63" fill="none" xmlns="http://www.w3.org/2000/svg">
<mask id="mask0_53_129" style="mask-type:luminance" maskUnits="userSpaceOnUse" x="0" y="0" width="63" height="63">
<path d="M0.333374 0.666626H63V62.2343H0.333374V0.666626Z" fill="white"/>
</mask>
<g mask="url(#mask0_53_129)">
<path d="M61.3958 56.0937L46.3385 41.0416C53.6927 31.2083 52.9271 17.2291 43.9844 8.29163C34.1771 -1.51567 18.276 -1.51567 8.46875 8.29163C-1.33854 18.0989 -1.33854 34 8.46875 43.8073C17.4063 52.7395 31.3854 53.5104 41.2188 46.1614L56.276 61.2135C56.9844 61.9218 57.9115 62.276 58.8385 62.276C59.7656 62.276 60.6927 61.9218 61.3958 61.2135C62.8125 59.802 62.8125 57.5052 61.3958 56.0937ZM26.7917 36.3645C26.1146 37.0416 25.1927 37.4218 24.2344 37.4218C23.2708 37.4218 22.3542 37.0416 21.6719 36.3645L11.0104 25.7031L16.1302 20.5833L24.2292 28.6823L37.5625 15.3541L42.6771 20.4739L26.7917 36.3645Z" fill="#828282"/>
</g>
</svg>
