<svg width="70" height="65" viewBox="0 0 70 65" fill="none" xmlns="http://www.w3.org/2000/svg">
<path d="M52.6354 31.1302L63.4114 20.3646C60.3958 17.7239 56.6406 16.1771 52.6354 15.9114V31.1302Z" fill="#828282"/>
<path d="M33.1719 34.0885C33.1719 44.1302 41.3542 52.3021 51.4115 52.3021C55.875 52.3021 60.0885 50.7135 63.4115 47.8073L50.5417 34.9531C50.526 34.9375 50.5156 34.9062 50.5 34.8906C50.4271 34.8073 50.3698 34.7187 50.3229 34.6198C50.3073 34.5937 50.2865 34.5781 50.276 34.5521C50.2708 34.5364 50.2708 34.5208 50.2656 34.5052C50.2187 34.3698 50.1875 34.2344 50.1875 34.0885V15.9114C40.6979 16.5416 33.1771 24.4531 33.1771 34.0885H33.1719Z" fill="#828282"/>
<mask id="mask0_53_130" style="mask-type:luminance" maskUnits="userSpaceOnUse" x="0" y="0" width="47" height="65">
<path d="M0.96875 0.520813H46.3333V64.2344H0.96875V0.520813Z" fill="white"/>
</mask>
<g mask="url(#mask0_53_130)">
<path d="M45.7969 53.9583C37.1094 51.5052 30.7188 43.5364 30.7188 34.0885C30.7188 24.6354 37.1094 16.6666 45.7969 14.2135V0.869751H0.96875V64.0104H45.7969V53.9583ZM18.8906 19.1198H32.6198C33.2969 19.1198 33.849 19.6666 33.849 20.3437C33.849 21.0208 33.2969 21.5677 32.6198 21.5677H18.8906C18.2135 21.5677 17.6615 21.0208 17.6615 20.3437C17.6615 19.6666 18.2135 19.1198 18.8906 19.1198ZM7.25521 19.1198H11.9479C12.625 19.1198 13.1771 19.6666 13.1771 20.3437C13.1771 21.0208 12.625 21.5677 11.9479 21.5677H7.25521C6.57813 21.5677 6.02604 21.0208 6.02604 20.3437C6.02604 19.6666 6.57813 19.1198 7.25521 19.1198ZM7.25521 25.1666H29.3333C30.0104 25.1666 30.5625 25.7135 30.5625 26.3906C30.5625 27.0677 30.0104 27.6145 29.3333 27.6145H7.25521C6.57813 27.6145 6.02604 27.0677 6.02604 26.3906C6.02604 25.7135 6.57813 25.1666 7.25521 25.1666ZM7.25521 31.2135H28.4583C29.1354 31.2135 29.6823 31.7656 29.6823 32.4375C29.6823 33.1145 29.1354 33.6666 28.4583 33.6666H7.25521C6.57813 33.6666 6.02604 33.1145 6.02604 32.4375C6.02604 31.7656 6.57813 31.2135 7.25521 31.2135ZM7.25521 37.2604H28.4583C29.1354 37.2604 29.6823 37.8125 29.6823 38.4895C29.6823 39.1614 29.1354 39.7135 28.4583 39.7135H7.25521C6.57813 39.7135 6.02604 39.1614 6.02604 38.4895C6.02604 37.8125 6.57813 37.2604 7.25521 37.2604ZM31.2969 45.7604H7.25521C6.57813 45.7604 6.02604 45.2135 6.02604 44.5364C6.02604 43.8593 6.57813 43.3125 7.25521 43.3125H31.2969C31.974 43.3125 32.526 43.8593 32.526 44.5364C32.526 45.2135 31.974 45.7604 31.2969 45.7604Z" fill="#828282"/>
</g>
<mask id="mask1_53_130" style="mask-type:luminance" maskUnits="userSpaceOnUse" x="53" y="21" width="17" height="26">
<path d="M53 21.3333H69.6458V46.6666H53V21.3333Z" fill="white"/>
</mask>
<g mask="url(#mask1_53_130)">
<path d="M53.1459 34.0885L57.4844 38.4219L65.1459 46.0729C68.0573 42.7552 69.6459 38.5416 69.6459 34.0885C69.6459 29.6302 68.0573 25.4166 65.1459 22.0989L53.1459 34.0885Z" fill="#828282"/>
</g>
</svg>
