<svg width="65" height="65" viewBox="0 0 65 65" fill="none" xmlns="http://www.w3.org/2000/svg">
<mask id="mask0_53_128" style="mask-type:luminance" maskUnits="userSpaceOnUse" x="0" y="0" width="65" height="65">
<path d="M0.916687 0.520813H64.6302V64.2344H0.916687V0.520813Z" fill="white"/>
</mask>
<g mask="url(#mask0_53_128)">
<path d="M64.4636 32.2916C64.4636 33.3333 64.4115 34.375 64.3073 35.4062C64.2084 36.4427 64.0521 37.4739 63.849 38.4948C63.6459 39.5156 63.3959 40.5208 63.0938 41.5156C62.7917 42.5104 62.4427 43.4896 62.0417 44.4531C61.6459 45.4166 61.1979 46.3541 60.7084 47.2708C60.2188 48.1875 59.6875 49.0781 59.1094 49.9479C58.5313 50.8125 57.9115 51.6458 57.25 52.4479C56.5886 53.2552 55.8906 54.026 55.1563 54.7604C54.4219 55.4948 53.6511 56.1927 52.8438 56.8541C52.0417 57.5156 51.2084 58.1354 50.3386 58.7135C49.474 59.2916 48.5834 59.8229 47.6667 60.3125C46.75 60.8073 45.8073 61.25 44.849 61.6458C43.8854 62.0469 42.9063 62.3958 41.9115 62.6979C40.9167 63 39.9063 63.2552 38.8854 63.4583C37.8646 63.6614 36.8386 63.8125 35.8021 63.9114C34.7656 64.0156 33.7292 64.0677 32.6875 64.0677C31.6459 64.0677 30.6094 64.0156 29.5729 63.9114C28.5417 63.8125 27.5104 63.6614 26.4896 63.4583C25.4688 63.2552 24.4636 63 23.4636 62.6979C22.4688 62.3958 21.4896 62.0469 20.5313 61.6458C19.5677 61.25 18.6302 60.8073 17.7136 60.3125C16.7917 59.8229 15.9011 59.2916 15.0365 58.7135C14.1719 58.1354 13.3386 57.5156 12.5313 56.8541C11.7292 56.1927 10.9584 55.4948 10.224 54.7604C9.48439 54.026 8.78648 53.2552 8.13023 52.4479C7.46877 51.6458 6.84898 50.8125 6.27085 49.9479C5.69273 49.0781 5.15627 48.1875 4.66669 47.2708C4.1771 46.3541 3.7344 45.4166 3.33335 44.4531C2.93752 43.4896 2.58856 42.5104 2.28648 41.5156C1.98439 40.5208 1.72919 39.5156 1.52606 38.4948C1.32294 37.4739 1.1719 36.4427 1.06773 35.4062C0.96877 34.375 0.916687 33.3333 0.916687 32.2916C0.916687 31.2552 0.96877 30.2135 1.06773 29.1823C1.1719 28.1458 1.32294 27.1146 1.52606 26.0937C1.72919 25.0729 1.98439 24.0677 2.28648 23.0729C2.58856 22.0729 2.93752 21.0989 3.33335 20.1354C3.7344 19.1719 4.1771 18.2344 4.66669 17.3177C5.15627 16.401 5.69273 15.5052 6.27085 14.6406C6.84898 13.776 7.46877 12.9427 8.13023 12.1354C8.78648 11.3333 9.48439 10.5625 10.224 9.8281C10.9584 9.09373 11.7292 8.39581 12.5313 7.73435C13.3386 7.0729 14.1719 6.45311 15.0365 5.87498C15.9011 5.29685 16.7917 4.76561 17.7136 4.27081C18.6302 3.78123 19.5677 3.33852 20.5313 2.93748C21.4896 2.54165 22.4688 2.19269 23.4636 1.8906C24.4636 1.58852 25.4688 1.33331 26.4896 1.13019C27.5104 0.927063 28.5417 0.776021 29.5729 0.671855C30.6094 0.572897 31.6459 0.520813 32.6875 0.520813C33.7292 0.520813 34.7656 0.572897 35.8021 0.671855C36.8386 0.776021 37.8646 0.927063 38.8854 1.13019C39.9063 1.33331 40.9167 1.58852 41.9115 1.8906C42.9063 2.19269 43.8854 2.54165 44.849 2.93748C45.8073 3.33852 46.75 3.78123 47.6667 4.27081C48.5834 4.76561 49.474 5.29685 50.3386 5.87498C51.2084 6.45311 52.0417 7.0729 52.8438 7.73435C53.6511 8.39581 54.4219 9.09373 55.1563 9.8281C55.8906 10.5625 56.5886 11.3333 57.25 12.1354C57.9115 12.9427 58.5313 13.776 59.1094 14.6406C59.6875 15.5052 60.2188 16.401 60.7084 17.3177C61.1979 18.2344 61.6459 19.1719 62.0417 20.1354C62.4427 21.0989 62.7917 22.0729 63.0938 23.0729C63.3959 24.0677 63.6459 25.0729 63.849 26.0937C64.0521 27.1146 64.2084 28.1458 64.3073 29.1823C64.4115 30.2135 64.4636 31.2552 64.4636 32.2916Z" fill="#828282"/>
</g>
<path fill-rule="evenodd" clip-rule="evenodd" d="M39.2916 40.1302H26.0833C24.7135 40.1302 23.5989 39.0156 23.5989 37.6458V26.9427C23.5989 25.5729 24.7135 24.4583 26.0833 24.4583H39.2916C40.6614 24.4583 41.7812 25.5729 41.7812 26.9427V37.6458C41.7812 39.0156 40.6614 40.1302 39.2916 40.1302ZM26.5364 35.1771C26.4896 35.1771 26.4375 35.1666 26.3906 35.1458C26.1875 35.0677 26.0885 34.8333 26.1666 34.6302L27.0312 32.4739V32.4635L28.5781 28.5833C28.5781 28.5833 28.5781 28.5781 28.5833 28.5781C28.5989 28.5312 28.6302 28.4844 28.6666 28.4479C28.7031 28.4114 28.75 28.3802 28.8021 28.3594C28.8021 28.3594 28.8073 28.3594 28.8125 28.3541C28.8594 28.3385 28.901 28.3333 28.9479 28.3333C28.9896 28.3333 29.0312 28.3385 29.0729 28.3541C29.0833 28.3541 29.0937 28.3594 29.1041 28.3646C29.151 28.3854 29.1927 28.4114 29.2291 28.4479C29.2656 28.4844 29.2969 28.526 29.3177 28.5781V28.5833L30.8646 32.4635V32.4687L31.7291 34.6302C31.8073 34.8333 31.7083 35.0677 31.5052 35.1458C31.3021 35.2291 31.0729 35.1302 30.9896 34.9271L30.2291 33.0156H27.6666L26.9062 34.9271C26.8437 35.0781 26.6927 35.1771 26.5364 35.1771ZM35.6041 35.1979H33.5C33.2812 35.1979 33.1041 35.0208 33.1041 34.8021C33.1041 34.5833 33.2812 34.4062 33.5 34.4062H35.2083V29.0989H33.5C33.2812 29.0989 33.1041 28.9219 33.1041 28.7031C33.1041 28.4844 33.2812 28.3073 33.5 28.3073H37.7135C37.9323 28.3073 38.1094 28.4844 38.1094 28.7031C38.1094 28.9219 37.9323 29.0989 37.7135 29.0989H36V34.4062H37.7135C37.9323 34.4062 38.1094 34.5833 38.1094 34.8021C38.1094 35.0208 37.9323 35.1979 37.7135 35.1979H35.6041ZM29.9114 32.2187L28.9479 29.8021L27.9844 32.2187H29.9114Z" fill="white"/>
<path fill-rule="evenodd" clip-rule="evenodd" d="M30.5781 25.25C30.3594 25.25 30.1823 25.0729 30.1823 24.8541V15.8698C30.1823 15.651 30.3594 15.4739 30.5781 15.4739C30.7969 15.4739 30.974 15.651 30.974 15.8698V24.8541C30.974 25.0729 30.7969 25.25 30.5781 25.25Z" fill="white"/>
<path fill-rule="evenodd" clip-rule="evenodd" d="M30.5781 16.2656C29.3906 16.2656 28.4271 15.302 28.4271 14.1145C28.4271 12.927 29.3906 11.9635 30.5781 11.9635C31.7656 11.9635 32.7291 12.927 32.7291 14.1145C32.7291 15.302 31.7656 16.2656 30.5781 16.2656Z" fill="white"/>
<path fill-rule="evenodd" clip-rule="evenodd" d="M34.8021 25.25C34.5781 25.25 34.4011 25.0729 34.4011 24.8541V21.1354C34.4011 20.9166 34.5781 20.7396 34.8021 20.7396C35.0209 20.7396 35.1979 20.9166 35.1979 21.1354V24.8541C35.1979 25.0729 35.0209 25.25 34.8021 25.25Z" fill="white"/>
<path fill-rule="evenodd" clip-rule="evenodd" d="M34.8021 21.5312C33.6146 21.5312 32.6458 20.5677 32.6458 19.3802C32.6458 18.1927 33.6146 17.2291 34.8021 17.2291C35.9844 17.2291 36.9531 18.1927 36.9531 19.3802C36.9531 20.5677 35.9844 21.5312 34.8021 21.5312Z" fill="white"/>
<path fill-rule="evenodd" clip-rule="evenodd" d="M39.0208 25.25C38.8021 25.25 38.625 25.0729 38.625 24.8542V19.0365C38.625 17.8698 39.5729 16.9219 40.7344 16.9219H43.2604C43.4844 16.9219 43.6615 17.1042 43.6615 17.3229C43.6615 17.5417 43.4844 17.7188 43.2604 17.7188H40.7344C40.0104 17.7188 39.4167 18.3073 39.4167 19.0365V24.8542C39.4167 25.0729 39.2396 25.25 39.0208 25.25Z" fill="white"/>
<path fill-rule="evenodd" clip-rule="evenodd" d="M45.0208 19.4739C43.8333 19.4739 42.8646 18.5104 42.8646 17.3229C42.8646 16.1354 43.8333 15.1666 45.0208 15.1666C46.2031 15.1666 47.1719 16.1354 47.1719 17.3229C47.1719 18.5104 46.2031 19.4739 45.0208 19.4739Z" fill="white"/>
<path fill-rule="evenodd" clip-rule="evenodd" d="M26.3542 25.25C26.1354 25.25 25.9583 25.0729 25.9583 24.8542V19.0365C25.9583 18.3073 25.3698 17.7188 24.6406 17.7188H22.1146C21.8958 17.7188 21.7188 17.5417 21.7188 17.3229C21.7188 17.1042 21.8958 16.9219 22.1146 16.9219H24.6406C25.8073 16.9219 26.7552 17.8698 26.7552 19.0365V24.8542C26.7552 25.0729 26.5781 25.25 26.3542 25.25Z" fill="white"/>
<path fill-rule="evenodd" clip-rule="evenodd" d="M20.3594 19.4739C19.1719 19.4739 18.2083 18.5104 18.2083 17.3229C18.2083 16.1354 19.1719 15.1666 20.3594 15.1666C21.5469 15.1666 22.5104 16.1354 22.5104 17.3229C22.5104 18.5104 21.5469 19.4739 20.3594 19.4739Z" fill="white"/>
<path fill-rule="evenodd" clip-rule="evenodd" d="M48.8542 28.375H41.3802C41.1615 28.375 40.9844 28.1979 40.9844 27.9792C40.9844 27.7604 41.1615 27.5781 41.3802 27.5781H48.8542C49.0729 27.5781 49.25 27.7604 49.25 27.9792C49.25 28.1979 49.0729 28.375 48.8542 28.375Z" fill="white"/>
<path fill-rule="evenodd" clip-rule="evenodd" d="M50.6094 30.1302C49.4219 30.1302 48.4583 29.1666 48.4583 27.9791C48.4583 26.7916 49.4219 25.8229 50.6094 25.8229C51.7969 25.8229 52.7604 26.7916 52.7604 27.9791C52.7604 29.1666 51.7969 30.1302 50.6094 30.1302Z" fill="white"/>
<path fill-rule="evenodd" clip-rule="evenodd" d="M43.6146 32.6927H41.3802C41.1615 32.6927 40.9844 32.5156 40.9844 32.2916C40.9844 32.0729 41.1615 31.8958 41.3802 31.8958H43.6146C43.8333 31.8958 44.0104 32.0729 44.0104 32.2916C44.0104 32.5156 43.8333 32.6927 43.6146 32.6927Z" fill="white"/>
<path fill-rule="evenodd" clip-rule="evenodd" d="M45.3698 34.4479C44.1823 34.4479 43.2188 33.4792 43.2188 32.2917C43.2188 31.1094 44.1823 30.1406 45.3698 30.1406C46.5573 30.1406 47.5208 31.1094 47.5208 32.2917C47.5208 33.4792 46.5573 34.4479 45.3698 34.4479Z" fill="white"/>
<path fill-rule="evenodd" clip-rule="evenodd" d="M48.8542 36.9844H41.3802C41.1615 36.9844 40.9844 36.8073 40.9844 36.5885C40.9844 36.3646 41.1615 36.1875 41.3802 36.1875H48.8542C49.0729 36.1875 49.25 36.3646 49.25 36.5885C49.25 36.8073 49.0729 36.9844 48.8542 36.9844Z" fill="white"/>
<path fill-rule="evenodd" clip-rule="evenodd" d="M50.6094 38.7395C49.4219 38.7395 48.4583 37.776 48.4583 36.5885C48.4583 35.401 49.4219 34.4323 50.6094 34.4323C51.7969 34.4323 52.7604 35.401 52.7604 36.5885C52.7604 37.776 51.7969 38.7395 50.6094 38.7395Z" fill="white"/>
<path fill-rule="evenodd" clip-rule="evenodd" d="M30.5781 49.1146C30.3594 49.1146 30.1823 48.9375 30.1823 48.7187V39.7344C30.1823 39.5156 30.3594 39.3333 30.5781 39.3333C30.7969 39.3333 30.974 39.5156 30.974 39.7344V48.7187C30.974 48.9375 30.7969 49.1146 30.5781 49.1146Z" fill="white"/>
<path fill-rule="evenodd" clip-rule="evenodd" d="M30.5781 52.625C29.3906 52.625 28.4271 51.6614 28.4271 50.4739C28.4271 49.2864 29.3906 48.3229 30.5781 48.3229C31.7656 48.3229 32.7291 49.2864 32.7291 50.4739C32.7291 51.6614 31.7656 52.625 30.5781 52.625Z" fill="white"/>
<path fill-rule="evenodd" clip-rule="evenodd" d="M34.8021 43.8489C34.5781 43.8489 34.4011 43.6719 34.4011 43.4531V39.7344C34.4011 39.5156 34.5781 39.3333 34.8021 39.3333C35.0209 39.3333 35.1979 39.5156 35.1979 39.7344V43.4531C35.1979 43.6719 35.0209 43.8489 34.8021 43.8489Z" fill="white"/>
<path fill-rule="evenodd" clip-rule="evenodd" d="M34.8021 47.3593C33.6146 47.3593 32.6458 46.3958 32.6458 45.2083C32.6458 44.0208 33.6146 43.0573 34.8021 43.0573C35.9844 43.0573 36.9531 44.0208 36.9531 45.2083C36.9531 46.3958 35.9844 47.3593 34.8021 47.3593Z" fill="white"/>
<path fill-rule="evenodd" clip-rule="evenodd" d="M43.2656 47.6614H40.7344C39.5729 47.6614 38.625 46.7187 38.625 45.552V39.7343C38.625 39.5156 38.8021 39.3385 39.0208 39.3385C39.2396 39.3385 39.4167 39.5156 39.4167 39.7343V45.552C39.4167 46.2812 40.0104 46.8698 40.7344 46.8698H43.2656C43.4844 46.8698 43.6615 47.0468 43.6615 47.2656C43.6615 47.4843 43.4844 47.6666 43.2656 47.6666V47.6614Z" fill="white"/>
<path fill-rule="evenodd" clip-rule="evenodd" d="M45.0208 49.4219C43.8333 49.4219 42.8646 48.4531 42.8646 47.2656C42.8646 46.0781 43.8333 45.1146 45.0208 45.1146C46.2031 45.1146 47.1719 46.0781 47.1719 47.2656C47.1719 48.4531 46.2031 49.4219 45.0208 49.4219Z" fill="white"/>
<path fill-rule="evenodd" clip-rule="evenodd" d="M24.6406 47.6614H22.1146C21.8958 47.6614 21.7188 47.4844 21.7188 47.2656C21.7188 47.0469 21.8958 46.8698 22.1146 46.8698H24.6406C25.3698 46.8698 25.9583 46.2812 25.9583 45.5521V39.7344C25.9583 39.5156 26.1354 39.3333 26.3542 39.3333C26.5781 39.3333 26.7552 39.5156 26.7552 39.7344V45.5521C26.7552 46.7187 25.8073 47.6614 24.6458 47.6614H24.6406Z" fill="white"/>
<path fill-rule="evenodd" clip-rule="evenodd" d="M20.3594 49.4219C19.1719 49.4219 18.2083 48.4531 18.2083 47.2656C18.2083 46.0781 19.1719 45.1146 20.3594 45.1146C21.5469 45.1146 22.5104 46.0781 22.5104 47.2656C22.5104 48.4531 21.5469 49.4219 20.3594 49.4219Z" fill="white"/>
<path fill-rule="evenodd" clip-rule="evenodd" d="M23.9948 28.3854H16.526C16.3073 28.3854 16.125 28.2083 16.125 27.9896C16.125 27.7708 16.3073 27.5938 16.526 27.5938H23.9948C24.2135 27.5938 24.3906 27.7708 24.3906 27.9896C24.3906 28.2083 24.2135 28.3854 23.9948 28.3854Z" fill="white"/>
<path fill-rule="evenodd" clip-rule="evenodd" d="M14.7708 30.1406C13.5833 30.1406 12.6146 29.177 12.6146 27.9895C12.6146 26.802 13.5833 25.8385 14.7708 25.8385C15.9583 25.8385 16.9219 26.802 16.9219 27.9895C16.9219 29.177 15.9583 30.1406 14.7708 30.1406Z" fill="white"/>
<path fill-rule="evenodd" clip-rule="evenodd" d="M23.9948 32.7031H21.7656C21.5469 32.7031 21.3646 32.526 21.3646 32.3073C21.3646 32.0885 21.5469 31.9062 21.7656 31.9062H23.9948C24.2135 31.9062 24.3906 32.0885 24.3906 32.3073C24.3906 32.526 24.2135 32.7031 23.9948 32.7031Z" fill="white"/>
<path fill-rule="evenodd" clip-rule="evenodd" d="M20.0104 34.4583C18.8229 34.4583 17.8542 33.4948 17.8542 32.3073C17.8542 31.1198 18.8229 30.151 20.0104 30.151C21.1979 30.151 22.1615 31.1198 22.1615 32.3073C22.1615 33.4948 21.1979 34.4583 20.0104 34.4583Z" fill="white"/>
<path fill-rule="evenodd" clip-rule="evenodd" d="M23.9948 36.9948H16.526C16.3073 36.9948 16.125 36.8177 16.125 36.599C16.125 36.3802 16.3073 36.2031 16.526 36.2031H23.9948C24.2135 36.2031 24.3906 36.3802 24.3906 36.599C24.3906 36.8177 24.2135 36.9948 23.9948 36.9948Z" fill="white"/>
<path fill-rule="evenodd" clip-rule="evenodd" d="M14.7708 38.75C13.5833 38.75 12.6146 37.7864 12.6146 36.5989C12.6146 35.4114 13.5833 34.4479 14.7708 34.4479C15.9583 34.4479 16.9219 35.4114 16.9219 36.5989C16.9219 37.7864 15.9583 38.75 14.7708 38.75Z" fill="white"/>
</svg>
