<svg width="64" height="64" viewBox="0 0 64 64" fill="none" xmlns="http://www.w3.org/2000/svg">
<mask id="mask0_54_268" style="mask-type:luminance" maskUnits="userSpaceOnUse" x="0" y="0" width="64" height="64">
<path d="M0 0H63.7135V63.7135H0V0Z" fill="white"/>
</mask>
<g mask="url(#mask0_54_268)">
<path d="M63.7135 31.8594C63.7135 40.0052 60.6563 47.4427 55.6198 53.0729C49.7865 59.6042 41.3021 63.7135 31.8594 63.7135C22.4115 63.7135 13.9219 59.6042 8.09375 53.0729C3.05729 47.4427 0 40.0052 0 31.8594C0 14.2656 14.2604 0 31.8594 0C49.4531 0 63.7135 14.2656 63.7135 31.8594Z" fill="#B3B3B3"/>
</g>
<path d="M31.8595 37.724C37.6303 37.724 42.8907 31.1927 42.8907 24.0208C42.8907 17.2448 41.5782 10.5417 31.8595 10.5417C22.1355 10.5417 20.823 17.2448 20.823 24.0208C20.823 31.1927 26.0834 37.724 31.8595 37.724Z" fill="#F2F2F2"/>
<mask id="mask1_54_268" style="mask-type:luminance" maskUnits="userSpaceOnUse" x="7" y="36" width="49" height="28">
<path d="M7.90625 36.3229H55.9063V63.7135H7.90625V36.3229Z" fill="white"/>
</mask>
<g mask="url(#mask1_54_268)">
<path d="M55.6198 53.0729C49.7864 59.6042 41.3021 63.7135 31.8593 63.7135C22.4114 63.7135 13.9218 59.6042 8.09372 53.0729C7.99476 49.1406 10.6146 40.0208 23.9791 37.2188C26.2656 39.5521 29.0781 40.8698 31.8593 40.8698C34.6354 40.8698 37.4479 39.5521 39.7343 37.2188C53.1041 40.0208 55.7187 49.1406 55.6198 53.0729Z" fill="#F2F2F2"/>
</g>
</svg>
