<svg width="64" height="65" viewBox="0 0 64 65" fill="none" xmlns="http://www.w3.org/2000/svg">
<path d="M43.724 30.8542V28.6875H18.5729V40.5521C18.5729 40.8021 18.6198 41.0417 18.7188 41.276C18.8125 41.5052 18.9479 41.7083 19.125 41.8854C19.3021 42.0625 19.5052 42.1979 19.7396 42.2917C19.9688 42.3906 20.2084 42.4375 20.4584 42.4375H32.1354C32.0677 42.0469 32.0209 41.6458 32 41.2448C31.9792 40.849 31.9844 40.4479 32.0104 40.0469C32.0365 39.651 32.0834 39.25 32.1615 38.8594C32.2344 38.4635 32.3281 38.0781 32.4531 37.6979C32.5729 37.3125 32.7136 36.9427 32.8802 36.5781C33.0469 36.2083 33.2292 35.8594 33.4375 35.5156C33.6459 35.1719 33.875 34.8437 34.1198 34.5313C34.3698 34.2135 34.6354 33.9167 34.9167 33.6302C35.1979 33.349 35.5 33.0833 35.8125 32.8385C36.1302 32.5885 36.4584 32.3594 36.8021 32.1563C37.1406 31.9479 37.4948 31.7604 37.8594 31.5938C38.224 31.4271 38.599 31.2865 38.9792 31.1667C39.3646 31.0469 39.75 30.9479 40.1459 30.875C40.5365 30.8021 40.9323 30.75 41.3334 30.724C41.7344 30.6979 42.1302 30.6927 42.5313 30.7188C42.9323 30.7396 43.3281 30.7813 43.724 30.8542Z" fill="#828282"/>
<path d="M43.724 22.026C43.724 21.776 43.6771 21.5365 43.5781 21.3073C43.4844 21.0729 43.349 20.8698 43.1719 20.6927C42.9948 20.5156 42.7917 20.3802 42.5573 20.2813C42.3281 20.1875 42.0886 20.1406 41.8386 20.1406H39.9531V21.3125C39.9531 21.5365 39.9115 21.75 39.8229 21.9531C39.7396 22.1615 39.6198 22.3385 39.4584 22.5C39.3021 22.6563 39.1198 22.776 38.9167 22.8594C38.7084 22.9479 38.4948 22.9896 38.2761 22.9896C38.0521 22.9896 37.8386 22.9479 37.6354 22.8594C37.4271 22.776 37.2448 22.6563 37.0886 22.5C36.9323 22.3385 36.8125 22.1615 36.724 21.9531C36.6406 21.75 36.599 21.5365 36.599 21.3125V20.1406H32.8229V21.3125C32.8229 21.5365 32.7813 21.75 32.6979 21.9531C32.6146 22.1615 32.4896 22.3385 32.3334 22.5C32.1771 22.6563 31.9948 22.776 31.7917 22.8594C31.5834 22.9479 31.3698 22.9896 31.1511 22.9896C30.9271 22.9896 30.7136 22.9479 30.5052 22.8594C30.3021 22.776 30.1198 22.6563 29.9636 22.5C29.8073 22.3385 29.6823 22.1615 29.599 21.9531C29.5156 21.75 29.474 21.5365 29.474 21.3125V20.1406H25.6979V21.3125C25.6979 21.5365 25.6563 21.75 25.5729 21.9531C25.4844 22.1615 25.3646 22.3385 25.2084 22.5C25.0521 22.6563 24.8698 22.776 24.6667 22.8594C24.4584 22.9479 24.2448 22.9896 24.0209 22.9896C23.8021 22.9896 23.5886 22.9479 23.3802 22.8594C23.1771 22.776 22.9948 22.6563 22.8386 22.5C22.6823 22.3385 22.5573 22.1615 22.474 21.9531C22.3906 21.75 22.3438 21.5365 22.3438 21.3125V20.1406H20.4584C20.2084 20.1406 19.9688 20.1875 19.7396 20.2813C19.5052 20.3802 19.3021 20.5156 19.125 20.6927C18.9479 20.8698 18.8125 21.0729 18.7188 21.3073C18.6198 21.5365 18.5729 21.776 18.5729 22.026V25.3385H43.724V22.026Z" fill="#828282"/>
<path d="M42.0469 34.0573C41.6094 34.0573 41.1719 34.0989 40.7396 34.1823C40.3073 34.2708 39.8854 34.3958 39.4792 34.5677C39.0729 34.7343 38.6875 34.9427 38.3229 35.1875C37.9531 35.4323 37.6146 35.7083 37.3073 36.0208C36.9948 36.3333 36.7136 36.6718 36.4688 37.0364C36.224 37.401 36.0209 37.7864 35.849 38.1979C35.6823 38.6041 35.5573 39.0208 35.4688 39.4531C35.3854 39.8854 35.3386 40.3229 35.3386 40.7604C35.3386 41.2031 35.3854 41.6406 35.4688 42.0729C35.5573 42.5 35.6823 42.9218 35.849 43.3281C36.0209 43.7343 36.224 44.1198 36.4688 44.4895C36.7136 44.8541 36.9948 45.1927 37.3073 45.5052C37.6146 45.8177 37.9531 46.0937 38.3229 46.3385C38.6875 46.5833 39.0729 46.7916 39.4792 46.9583C39.8854 47.125 40.3073 47.2552 40.7396 47.3385C41.1719 47.427 41.6094 47.4687 42.0469 47.4687C42.4896 47.4687 42.9219 47.427 43.3542 47.3385C43.7865 47.2552 44.2084 47.125 44.6146 46.9583C45.0209 46.7916 45.4063 46.5833 45.7709 46.3385C46.1406 46.0937 46.4792 45.8177 46.7917 45.5052C47.099 45.1927 47.3802 44.8541 47.625 44.4895C47.8698 44.1198 48.0729 43.7343 48.2448 43.3281C48.4115 42.9218 48.5417 42.5 48.625 42.0729C48.7136 41.6406 48.7552 41.2031 48.7552 40.7604C48.7552 40.3229 48.7136 39.8854 48.625 39.4531C48.5417 39.0208 48.4115 38.6041 48.2448 38.1979C48.0729 37.7864 47.8698 37.401 47.625 37.0364C47.3802 36.6718 47.099 36.3333 46.7917 36.0208C46.4792 35.7083 46.1406 35.4323 45.7709 35.1875C45.4063 34.9427 45.0209 34.7343 44.6146 34.5677C44.2084 34.3958 43.7865 34.2708 43.3542 34.1823C42.9219 34.0989 42.4896 34.0573 42.0469 34.0573ZM44.9115 43.625C44.75 43.7812 44.5729 43.901 44.3646 43.9895C44.1615 44.0729 43.9479 44.1145 43.724 44.1145C43.5 44.1145 43.2865 44.0729 43.0834 43.9895C42.875 43.901 42.6979 43.7812 42.5365 43.625L40.8594 41.9479C40.5365 41.6198 40.3698 41.2239 40.3698 40.7604V37.4062C40.3698 37.1875 40.4115 36.9739 40.5 36.7656C40.5834 36.5625 40.7031 36.3802 40.8594 36.2239C41.0209 36.0677 41.1979 35.9427 41.4063 35.8593C41.6094 35.776 41.8229 35.7343 42.0469 35.7343C42.2709 35.7343 42.4844 35.776 42.6875 35.8593C42.8959 35.9427 43.0781 36.0677 43.2344 36.2239C43.3906 36.3802 43.5104 36.5625 43.5938 36.7656C43.6823 36.9739 43.724 37.1875 43.724 37.4062V40.0677L44.9115 41.2552C45.0677 41.4114 45.1875 41.5937 45.2709 41.7968C45.3594 42 45.4011 42.2187 45.4011 42.4375C45.4011 42.6614 45.3594 42.875 45.2709 43.0781C45.1875 43.2864 45.0677 43.4687 44.9115 43.625Z" fill="#828282"/>
<mask id="mask0_53_127" style="mask-type:luminance" maskUnits="userSpaceOnUse" x="0" y="0" width="64" height="65">
<path d="M0.130188 0.520813H63.8437V64.2344H0.130188V0.520813Z" fill="white"/>
</mask>
<g mask="url(#mask0_53_127)">
<path d="M31.9896 0.520813C30.9427 0.520813 29.901 0.572896 28.8646 0.677062C27.8281 0.77602 26.7969 0.932271 25.7708 1.1354C24.75 1.33852 23.7396 1.58852 22.7396 1.8906C21.7396 2.1979 20.7604 2.54685 19.7969 2.9479C18.8333 3.34373 17.8906 3.79165 16.9687 4.28123C16.0521 4.77602 15.1562 5.31248 14.2864 5.8906C13.4219 6.46873 12.5833 7.08852 11.776 7.74998C10.9687 8.41665 10.1979 9.11456 9.45831 9.85415C8.72394 10.5885 8.02081 11.3646 7.35935 12.1666C6.6979 12.9739 6.07811 13.8125 5.49998 14.6771C4.91665 15.5469 4.3854 16.4427 3.8906 17.3594C3.40102 18.2812 2.9531 19.2239 2.55727 20.1875C2.15623 21.151 1.80206 22.1302 1.49998 23.1302C1.1979 24.1302 0.947896 25.1406 0.739563 26.1614C0.536438 27.1875 0.385395 28.2187 0.28123 29.2552C0.182271 30.2969 0.130188 31.3333 0.130188 32.3802C0.130188 33.4219 0.182271 34.4635 0.28123 35.5C0.385395 36.5416 0.536438 37.5677 0.739563 38.5937C0.947896 39.6146 1.1979 40.6302 1.49998 41.625C1.80206 42.625 2.15623 43.6041 2.55727 44.5677C2.9531 45.5312 3.40102 46.4739 3.8906 47.3958C4.3854 48.3177 4.91665 49.2083 5.49998 50.0781C6.07811 50.9427 6.6979 51.7812 7.35935 52.5885C8.02081 53.3958 8.72394 54.1666 9.45831 54.9062C10.1979 55.6406 10.9687 56.3437 11.776 57.0052C12.5833 57.6666 13.4219 58.2864 14.2864 58.8646C15.1562 59.4479 16.0521 59.9844 16.9687 60.4739C17.8906 60.9635 18.8333 61.4114 19.7969 61.8125C20.7604 62.2083 21.7396 62.5625 22.7396 62.8646C23.7396 63.1666 24.75 63.4219 25.7708 63.625C26.7969 63.8281 27.8281 63.9791 28.8646 64.0833C29.901 64.1823 30.9427 64.2344 31.9896 64.2344C33.0312 64.2344 34.0729 64.1823 35.1094 64.0833C36.1458 63.9791 37.1771 63.8281 38.2031 63.625C39.2239 63.4219 40.2344 63.1666 41.2344 62.8646C42.2344 62.5625 43.2135 62.2083 44.1771 61.8125C45.1406 61.4114 46.0833 60.9635 47.0052 60.4739C47.9271 59.9844 48.8177 59.4479 49.6875 58.8646C50.5521 58.2864 51.3906 57.6666 52.1979 57.0052C53.0052 56.3437 53.776 55.6406 54.5156 54.9062C55.25 54.1666 55.9531 53.3958 56.6146 52.5885C57.276 51.7812 57.8958 50.9427 58.4739 50.0781C59.0573 49.2083 59.5885 48.3177 60.0833 47.3958C60.5729 46.4739 61.0208 45.5312 61.4219 44.5677C61.8177 43.6041 62.1719 42.625 62.4739 41.625C62.776 40.6302 63.026 39.6146 63.2344 38.5937C63.4375 37.5677 63.5885 36.5416 63.6927 35.5C63.7916 34.4635 63.8437 33.4219 63.8437 32.3802C63.8437 31.3333 63.7916 30.2969 63.6875 29.2552C63.5833 28.2187 63.4323 27.1875 63.2239 26.1666C63.0208 25.1406 62.7656 24.1302 62.4635 23.1354C62.1614 22.1354 61.8073 21.1562 61.4114 20.1927C61.0104 19.2291 60.5625 18.2864 60.0729 17.3698C59.5781 16.4479 59.0469 15.5573 58.4635 14.6875C57.8854 13.8229 57.2656 12.9844 56.6041 12.1771C55.9427 11.3698 55.2396 10.5989 54.5052 9.86456C53.7656 9.12498 52.9948 8.42706 52.1875 7.7656C51.3802 7.09894 50.5469 6.47915 49.6771 5.90102C48.8125 5.3229 47.9166 4.78644 47 4.29165C46.0781 3.80206 45.1354 3.35415 44.1719 2.9531C43.2083 2.55727 42.2291 2.20311 41.2291 1.90102C40.2344 1.59894 39.2239 1.34373 38.1979 1.1406C37.1771 0.937479 36.1458 0.78123 35.1094 0.677062C34.0729 0.572896 33.0312 0.520813 31.9896 0.520813ZM42.0469 50.8229C41.1666 50.8229 40.2969 50.7083 39.4479 50.4791C38.5937 50.25 37.7864 49.9114 37.026 49.4687C36.2604 49.0312 35.5677 48.4948 34.9427 47.875C34.3229 47.25 33.7916 46.5573 33.3489 45.7916H20.4583C19.7656 45.7916 19.0989 45.6562 18.4583 45.3906C17.8125 45.125 17.25 44.7448 16.7552 44.2552C16.2656 43.7656 15.8854 43.1979 15.6198 42.5573C15.3541 41.9166 15.2187 41.2448 15.2187 40.5521V22.026C15.2187 21.3333 15.3541 20.6614 15.6198 20.0208C15.8854 19.3802 16.2656 18.8125 16.7552 18.3229C17.2448 17.8333 17.8125 17.4531 18.4531 17.1875C19.0989 16.9219 19.7656 16.7864 20.4583 16.7864H22.3437V15.6094C22.3437 15.3906 22.3906 15.1771 22.4739 14.9687C22.5573 14.7656 22.6823 14.5833 22.8385 14.4271C22.9948 14.2708 23.1771 14.1458 23.3802 14.0625C23.5885 13.9791 23.8021 13.9323 24.0208 13.9323C24.2448 13.9323 24.4583 13.9791 24.6666 14.0625C24.8698 14.1458 25.0521 14.2708 25.2083 14.4271C25.3646 14.5833 25.4844 14.7656 25.5729 14.9687C25.6562 15.1771 25.6979 15.3906 25.6979 15.6094V16.7864H29.4739V15.6094C29.4739 15.3906 29.5156 15.1771 29.5989 14.9687C29.6823 14.7656 29.8073 14.5833 29.9635 14.4271C30.1198 14.2708 30.3021 14.1458 30.5052 14.0625C30.7135 13.9791 30.9271 13.9323 31.151 13.9323C31.3698 13.9323 31.5833 13.9791 31.7916 14.0625C31.9948 14.1458 32.1771 14.2708 32.3333 14.4271C32.4896 14.5833 32.6146 14.7656 32.6979 14.9687C32.7812 15.1771 32.8229 15.3906 32.8229 15.6094V16.7864H36.5989V15.6094C36.5989 15.3906 36.6406 15.1771 36.7239 14.9687C36.8125 14.7656 36.9323 14.5833 37.0885 14.4271C37.2448 14.2708 37.4271 14.1458 37.6354 14.0625C37.8385 13.9791 38.0521 13.9323 38.276 13.9323C38.4948 13.9323 38.7083 13.9791 38.9166 14.0625C39.1198 14.1458 39.3021 14.2708 39.4583 14.4271C39.6198 14.5833 39.7396 14.7656 39.8229 14.9687C39.9114 15.1771 39.9531 15.3906 39.9531 15.6094V16.7864H41.8385C42.5312 16.7864 43.2031 16.9219 43.8437 17.1875C44.4844 17.4531 45.0521 17.8333 45.5416 18.3229C46.0312 18.8125 46.4114 19.3802 46.6771 20.0208C46.9427 20.6614 47.0781 21.3333 47.0781 22.026V32.0625C48.0364 32.6146 48.8802 33.3073 49.6094 34.1406C50.3385 34.9739 50.9166 35.901 51.3385 36.9219C51.7656 37.9427 52.0104 39.0104 52.0833 40.1146C52.1562 41.2187 52.0521 42.3021 51.7656 43.375C51.4791 44.4427 51.026 45.4375 50.4114 46.3594C49.7969 47.276 49.0469 48.0729 48.1719 48.75C47.2916 49.4219 46.3281 49.9375 45.2812 50.2916C44.2291 50.6458 43.1562 50.8229 42.0469 50.8229Z" fill="#828282"/>
</g>
</svg>
